<?xml version="1.0" encoding="utf-8"?>
<!-- Generator: Adobe Illustrator 23.0.3, SVG Export Plug-In . SVG Version: 6.00 Build 0)  -->
<svg version="1.1" id="Слой_1" xmlns="http://www.w3.org/2000/svg" xmlns:xlink="http://www.w3.org/1999/xlink" x="0px" y="0px"
	 viewBox="0 0 16 16" style="enable-background:new 0 0 16 16;" xml:space="preserve">
<g id="ROA7eo.tif">
	<g>
		<path d="M13.6,4c0,3.7,0,7.4,0,11.2c-3.7,0-7.5,0-11.2,0c0-4.8,0-9.6,0-14.4c2.7,0,5.3,0,8,0c0,0.4,0,0.9,0,1.3
			c0,0.2,0.1,0.2,0.2,0.2c0.4,0,0.8,0,1.2,0C12,2.4,12,2.4,12,2.6c0,0.4,0,0.8,0,1.1C12,3.9,12.1,4,12.3,4C12.7,4,13.2,4,13.6,4z
			 M4,8c0,1.8,0,3.5,0,5.3c0,0.2,0.1,0.3,0.3,0.3c2.5,0,4.9,0,7.4,0c0.2,0,0.3-0.1,0.3-0.3c0-2.5,0-4.9,0-7.4c0-0.2-0.1-0.3-0.3-0.3
			c-0.9,0-1.7,0-2.6,0c-0.3,0-0.3,0-0.3-0.3c0-0.9,0-1.7,0-2.6c0-0.3,0-0.3-0.3-0.3c-1.4,0-2.8,0-4.2,0C4,2.5,4,2.5,4,2.8
			C4,4.5,4,6.2,4,8z"/>
	</g>
</g>
</svg>
